<svg width="33" height="26" viewBox="0 0 33 26" fill="none" xmlns="http://www.w3.org/2000/svg">
<path d="M1 0.142857C0.526613 0.142857 0.142857 0.526613 0.142857 1C0.142857 1.47339 0.526613 1.85714 1 1.85714V0.142857ZM31.8571 1.85714H32.7143V0.142857H31.8571V1.85714ZM1 1.85714H31.8571V0.142857H1V1.85714Z" fill="#ECECEC"/>
<path d="M1 12.1429C0.526613 12.1429 0.142857 12.5266 0.142857 13C0.142857 13.4734 0.526613 13.8571 1 13.8571V12.1429ZM31.8571 13.8571H32.7143V12.1429H31.8571V13.8571ZM1 13.8571H31.8571V12.1429H1V13.8571Z" fill="#ECECEC"/>
<path d="M1 24.1429C0.526613 24.1429 0.142857 24.5266 0.142857 25C0.142857 25.4734 0.526613 25.8571 1 25.8571V24.1429ZM31.8571 25.8571H32.7143V24.1429H31.8571V25.8571ZM1 25.8571H31.8571V24.1429H1V25.8571Z" fill="#ECECEC"/>
</svg>
